<mxfile host="app.diagrams.net" modified="2021-09-01T10:36:35.484Z" agent="5.0 (Macintosh; Intel Mac OS X 10_14_6) AppleWebKit/537.36 (KHTML, like Gecko) Chrome/92.0.4515.159 Safari/537.36" etag="nqV7obfF6Q0bkQrAh-rG" version="14.9.9" type="github">
  <diagram id="aL3fEhTdmqD1aTYq5YK6" name="Page-1">
    <mxGraphModel dx="946" dy="557" grid="1" gridSize="10" guides="1" tooltips="1" connect="1" arrows="1" fold="1" page="1" pageScale="1" pageWidth="827" pageHeight="1169" math="0" shadow="0">
      <root>
        <mxCell id="0" />
        <mxCell id="1" parent="0" />
        <mxCell id="sroblWVx-8And22JmdGD-3" value="Fluentd process" style="dashed=1;verticalAlign=top;fontStyle=0;" vertex="1" parent="1">
          <mxGeometry x="240" y="80" width="440" height="280" as="geometry" />
        </mxCell>
        <mxCell id="sroblWVx-8And22JmdGD-32" value="EC2/Fargate" style="dashed=1;verticalAlign=top;fontStyle=0;" vertex="1" parent="1">
          <mxGeometry x="40" y="80" width="160" height="280" as="geometry" />
        </mxCell>
        <mxCell id="sroblWVx-8And22JmdGD-25" value="ElasticSearch" style="dashed=1;verticalAlign=top;fontStyle=0;" vertex="1" parent="1">
          <mxGeometry x="720" y="80" width="200" height="280" as="geometry" />
        </mxCell>
        <mxCell id="sroblWVx-8And22JmdGD-4" style="edgeStyle=orthogonalEdgeStyle;rounded=0;orthogonalLoop=1;jettySize=auto;html=1;entryX=0;entryY=0.5;entryDx=0;entryDy=0;" edge="1" parent="1" source="sroblWVx-8And22JmdGD-1" target="sroblWVx-8And22JmdGD-2">
          <mxGeometry relative="1" as="geometry" />
        </mxCell>
        <mxCell id="sroblWVx-8And22JmdGD-1" value="container logs file" style="shape=image;html=1;verticalAlign=top;verticalLabelPosition=bottom;labelBackgroundColor=#ffffff;imageAspect=0;aspect=fixed;image=https://cdn0.iconfinder.com/data/icons/simpline-mix/64/simpline_4-128.png" vertex="1" parent="1">
          <mxGeometry x="80" y="200" width="40" height="40" as="geometry" />
        </mxCell>
        <mxCell id="sroblWVx-8And22JmdGD-9" style="edgeStyle=orthogonalEdgeStyle;orthogonalLoop=1;jettySize=auto;html=1;entryX=0;entryY=0.5;entryDx=0;entryDy=0;rounded=1;jumpStyle=none;" edge="1" parent="1" source="sroblWVx-8And22JmdGD-2" target="sroblWVx-8And22JmdGD-5">
          <mxGeometry relative="1" as="geometry" />
        </mxCell>
        <mxCell id="sroblWVx-8And22JmdGD-10" style="edgeStyle=orthogonalEdgeStyle;rounded=1;jumpStyle=none;orthogonalLoop=1;jettySize=auto;html=1;entryX=0;entryY=0.5;entryDx=0;entryDy=0;" edge="1" parent="1" source="sroblWVx-8And22JmdGD-2" target="sroblWVx-8And22JmdGD-7">
          <mxGeometry relative="1" as="geometry" />
        </mxCell>
        <mxCell id="sroblWVx-8And22JmdGD-11" style="edgeStyle=orthogonalEdgeStyle;rounded=1;jumpStyle=none;orthogonalLoop=1;jettySize=auto;html=1;entryX=0;entryY=0.5;entryDx=0;entryDy=0;" edge="1" parent="1" source="sroblWVx-8And22JmdGD-2" target="sroblWVx-8And22JmdGD-8">
          <mxGeometry relative="1" as="geometry" />
        </mxCell>
        <mxCell id="sroblWVx-8And22JmdGD-2" value="INPUT" style="shape=image;html=1;verticalAlign=top;verticalLabelPosition=bottom;labelBackgroundColor=#ffffff;imageAspect=0;aspect=fixed;image=https://cdn1.iconfinder.com/data/icons/text-editing-6/32/Text_Editing_input-128.png" vertex="1" parent="1">
          <mxGeometry x="280" y="200" width="40" height="40" as="geometry" />
        </mxCell>
        <mxCell id="sroblWVx-8And22JmdGD-13" style="edgeStyle=orthogonalEdgeStyle;rounded=1;jumpStyle=none;orthogonalLoop=1;jettySize=auto;html=1;" edge="1" parent="1" source="sroblWVx-8And22JmdGD-5" target="sroblWVx-8And22JmdGD-14">
          <mxGeometry relative="1" as="geometry" />
        </mxCell>
        <mxCell id="sroblWVx-8And22JmdGD-5" value="CC FILTER" style="shape=image;html=1;verticalAlign=top;verticalLabelPosition=bottom;labelBackgroundColor=#ffffff;imageAspect=0;aspect=fixed;image=https://cdn1.iconfinder.com/data/icons/shopping-234/64/shopping_red_outline_filter-128.png" vertex="1" parent="1">
          <mxGeometry x="360" y="120" width="40" height="40" as="geometry" />
        </mxCell>
        <mxCell id="sroblWVx-8And22JmdGD-22" style="edgeStyle=orthogonalEdgeStyle;rounded=1;jumpStyle=none;orthogonalLoop=1;jettySize=auto;html=1;entryX=0;entryY=0.5;entryDx=0;entryDy=0;" edge="1" parent="1" source="sroblWVx-8And22JmdGD-7" target="sroblWVx-8And22JmdGD-18">
          <mxGeometry relative="1" as="geometry">
            <mxPoint x="480" y="220" as="targetPoint" />
          </mxGeometry>
        </mxCell>
        <mxCell id="sroblWVx-8And22JmdGD-7" value="IC FILTER" style="shape=image;html=1;verticalAlign=top;verticalLabelPosition=bottom;labelBackgroundColor=#ffffff;imageAspect=0;aspect=fixed;image=https://cdn1.iconfinder.com/data/icons/shopping-234/64/shopping_red_outline_filter-128.png;imageBackground=#ffffff;" vertex="1" parent="1">
          <mxGeometry x="360" y="200" width="40" height="40" as="geometry" />
        </mxCell>
        <mxCell id="sroblWVx-8And22JmdGD-23" style="edgeStyle=orthogonalEdgeStyle;rounded=1;jumpStyle=none;orthogonalLoop=1;jettySize=auto;html=1;entryX=0;entryY=0.5;entryDx=0;entryDy=0;" edge="1" parent="1" source="sroblWVx-8And22JmdGD-8" target="sroblWVx-8And22JmdGD-21">
          <mxGeometry relative="1" as="geometry">
            <mxPoint x="480" y="300" as="targetPoint" />
          </mxGeometry>
        </mxCell>
        <mxCell id="sroblWVx-8And22JmdGD-8" value="LC FILTER" style="shape=image;html=1;verticalAlign=top;verticalLabelPosition=bottom;labelBackgroundColor=#ffffff;imageAspect=0;aspect=fixed;image=https://cdn1.iconfinder.com/data/icons/shopping-234/64/shopping_red_outline_filter-128.png" vertex="1" parent="1">
          <mxGeometry x="360" y="280" width="40" height="40" as="geometry" />
        </mxCell>
        <mxCell id="sroblWVx-8And22JmdGD-29" style="edgeStyle=orthogonalEdgeStyle;rounded=1;jumpStyle=none;orthogonalLoop=1;jettySize=auto;html=1;" edge="1" parent="1" source="sroblWVx-8And22JmdGD-14" target="sroblWVx-8And22JmdGD-26">
          <mxGeometry relative="1" as="geometry" />
        </mxCell>
        <mxCell id="sroblWVx-8And22JmdGD-14" value="CC OUTPUT" style="shape=image;html=1;verticalAlign=top;verticalLabelPosition=bottom;labelBackgroundColor=#ffffff;imageAspect=0;aspect=fixed;image=https://cdn3.iconfinder.com/data/icons/arrow-and-interface-4/32/output-3-128.png" vertex="1" parent="1">
          <mxGeometry x="600" y="120" width="40" height="40" as="geometry" />
        </mxCell>
        <mxCell id="sroblWVx-8And22JmdGD-30" style="edgeStyle=orthogonalEdgeStyle;rounded=1;jumpStyle=none;orthogonalLoop=1;jettySize=auto;html=1;entryX=0;entryY=0.5;entryDx=0;entryDy=0;" edge="1" parent="1" source="sroblWVx-8And22JmdGD-18" target="sroblWVx-8And22JmdGD-27">
          <mxGeometry relative="1" as="geometry" />
        </mxCell>
        <mxCell id="sroblWVx-8And22JmdGD-18" value="IC OUTPUT" style="shape=image;html=1;verticalAlign=top;verticalLabelPosition=bottom;labelBackgroundColor=#ffffff;imageAspect=0;aspect=fixed;image=https://cdn3.iconfinder.com/data/icons/arrow-and-interface-4/32/output-3-128.png;imageBackground=#ffffff;" vertex="1" parent="1">
          <mxGeometry x="600" y="200" width="40" height="40" as="geometry" />
        </mxCell>
        <mxCell id="sroblWVx-8And22JmdGD-31" style="edgeStyle=orthogonalEdgeStyle;rounded=1;jumpStyle=none;orthogonalLoop=1;jettySize=auto;html=1;entryX=0;entryY=0.5;entryDx=0;entryDy=0;" edge="1" parent="1" source="sroblWVx-8And22JmdGD-21" target="sroblWVx-8And22JmdGD-28">
          <mxGeometry relative="1" as="geometry" />
        </mxCell>
        <mxCell id="sroblWVx-8And22JmdGD-21" value="LC OUTPUT" style="shape=image;html=1;verticalAlign=top;verticalLabelPosition=bottom;labelBackgroundColor=#ffffff;imageAspect=0;aspect=fixed;image=https://cdn3.iconfinder.com/data/icons/arrow-and-interface-4/32/output-3-128.png" vertex="1" parent="1">
          <mxGeometry x="600" y="280" width="40" height="40" as="geometry" />
        </mxCell>
        <mxCell id="sroblWVx-8And22JmdGD-24" value="" style="points=[[0,0,0],[0.25,0,0],[0.5,0,0],[0.75,0,0],[1,0,0],[0,1,0],[0.25,1,0],[0.5,1,0],[0.75,1,0],[1,1,0],[0,0.25,0],[0,0.5,0],[0,0.75,0],[1,0.25,0],[1,0.5,0],[1,0.75,0]];outlineConnect=0;fontColor=#232F3E;gradientColor=#945DF2;gradientDirection=north;fillColor=#5A30B5;strokeColor=#ffffff;dashed=0;verticalLabelPosition=bottom;verticalAlign=top;align=center;html=1;fontSize=12;fontStyle=0;aspect=fixed;shape=mxgraph.aws4.resourceIcon;resIcon=mxgraph.aws4.elasticsearch_service;" vertex="1" parent="1">
          <mxGeometry x="720" y="80" width="40" height="40" as="geometry" />
        </mxCell>
        <mxCell id="sroblWVx-8And22JmdGD-26" value="CC Indices" style="shape=image;html=1;verticalAlign=top;verticalLabelPosition=bottom;labelBackgroundColor=#ffffff;imageAspect=0;aspect=fixed;image=https://cdn1.iconfinder.com/data/icons/app-user-interface-line/64/list_app_user_interface_index-128.png" vertex="1" parent="1">
          <mxGeometry x="800" y="120" width="40" height="40" as="geometry" />
        </mxCell>
        <mxCell id="sroblWVx-8And22JmdGD-27" value="IC Indices" style="shape=image;html=1;verticalAlign=top;verticalLabelPosition=bottom;labelBackgroundColor=#ffffff;imageAspect=0;aspect=fixed;image=https://cdn1.iconfinder.com/data/icons/app-user-interface-line/64/list_app_user_interface_index-128.png;imageBackground=#ffffff;" vertex="1" parent="1">
          <mxGeometry x="800" y="200" width="40" height="40" as="geometry" />
        </mxCell>
        <mxCell id="sroblWVx-8And22JmdGD-28" value="LC Indices" style="shape=image;html=1;verticalAlign=top;verticalLabelPosition=bottom;labelBackgroundColor=#ffffff;imageAspect=0;aspect=fixed;image=https://cdn1.iconfinder.com/data/icons/app-user-interface-line/64/list_app_user_interface_index-128.png" vertex="1" parent="1">
          <mxGeometry x="800" y="280" width="40" height="40" as="geometry" />
        </mxCell>
        <mxCell id="sroblWVx-8And22JmdGD-33" value="" style="points=[[0,0,0],[0.25,0,0],[0.5,0,0],[0.75,0,0],[1,0,0],[0,1,0],[0.25,1,0],[0.5,1,0],[0.75,1,0],[1,1,0],[0,0.25,0],[0,0.5,0],[0,0.75,0],[1,0.25,0],[1,0.5,0],[1,0.75,0]];outlineConnect=0;fontColor=#232F3E;gradientDirection=north;strokeColor=#ffffff;dashed=0;verticalLabelPosition=bottom;verticalAlign=top;align=center;html=1;fontSize=12;fontStyle=0;aspect=fixed;shape=mxgraph.aws4.resourceIcon;resIcon=mxgraph.aws4.ec2;fillColor=#7C30FF;" vertex="1" parent="1">
          <mxGeometry x="40" y="80" width="40" height="40" as="geometry" />
        </mxCell>
        <mxCell id="sroblWVx-8And22JmdGD-34" value="" style="verticalAlign=top;fontStyle=0;rounded=1;arcSize=23;" vertex="1" parent="1">
          <mxGeometry x="450" y="120" width="80" height="200" as="geometry" />
        </mxCell>
        <mxCell id="sroblWVx-8And22JmdGD-12" value="PARSER" style="shape=image;html=1;verticalAlign=top;verticalLabelPosition=bottom;labelBackgroundColor=#ffffff;imageAspect=0;aspect=fixed;image=https://cdn4.iconfinder.com/data/icons/48-bubbles/48/12.File-128.png" vertex="1" parent="1">
          <mxGeometry x="470" y="200" width="40" height="40" as="geometry" />
        </mxCell>
      </root>
    </mxGraphModel>
  </diagram>
</mxfile>
